<?xml version="1.0" encoding="UTF-8"?>
<svg id="Livello_2" data-name="Livello 2" xmlns="http://www.w3.org/2000/svg" viewBox="0 0 122.14 173.58">
  <g id="Livello_1-2" data-name="Livello 1">
    <path d="M6.11,0h104.27c1.81,0,3.54.08,5.2.24,1.66.17,2.86.82,3.62,1.95.3.49.49,1.06.57,1.7.07.65.26,1.31.56,1.95v2.68c.15,1.14.19,2.36.11,3.66-.08,1.3-.11,2.52-.11,3.66,0,1.31.04,2.56.11,3.78.07,1.22.04,2.4-.11,3.53-.15.82-.22,2.04-.22,3.66-.45,1.95-1.21,3.25-2.26,3.9-.91.65-2.04.97-3.39.97h-60.84c-1.21,0-2.6-.04-4.18-.12s-3.17-.08-4.75,0c-1.58.08-3.05.24-4.41.48-1.36.25-2.34.61-2.94,1.1-1.06.81-1.7,1.99-1.92,3.53-.23,1.55-.34,3.29-.34,5.24v20.96c.3,1.31.6,2.4.91,3.29.3.89.83,1.58,1.58,2.07.9.65,1.96,1.02,3.17,1.1,1.21.09,2.49.12,3.85.12h51.12c1.06,0,2.38-.04,3.96-.12,1.58-.08,3.13-.08,4.64,0,1.5.09,2.9.2,4.18.37,1.28.17,2.22.49,2.83.97.75.49,1.28,1.47,1.58,2.93.3,1.46.49,3.04.57,4.75.07,1.7.07,3.45,0,5.24-.08,1.79-.11,3.33-.11,4.63v3.41c0,1.14-.15,2.11-.45,2.92-.3,1.31-.91,2.36-1.81,3.17-.76.48-1.77.81-3.05.97-1.28.17-2.71.24-4.3.24s-3.17-.04-4.75-.12c-1.58-.08-2.91-.12-3.96-.12h-44.11c-1.81,0-3.54-.04-5.2-.12-1.66-.08-3.2,0-4.64.25-1.43.24-2.64.73-3.62,1.46-.98.73-1.7,1.83-2.15,3.29-.15.82-.23,1.67-.23,2.56v25.47c0,1.95.11,3.7.34,5.24.23,1.55.87,2.73,1.92,3.54.45.49,1.02.77,1.7.85.68.08,1.39.28,2.15.61h2.26c.75.16,1.58.2,2.49.12s1.73-.12,2.49-.12h67.52c1.13,0,2.15.24,3.05.73,1.21.49,2.04,1.38,2.49,2.68.3.81.49,1.79.57,2.92.07,1.14.11,2.36.11,3.66v11.22c0,1.95-.08,3.78-.23,5.48-.15,1.71-.83,2.97-2.04,3.78-.91.82-2.07,1.22-3.51,1.22H9.95c-2.11,0-3.96-.12-5.54-.37-1.58-.25-2.75-1.02-3.51-2.32-.6-.98-.91-2.23-.91-3.78V6.09c0-1.46.3-2.6.91-3.41C1.51,1.55,2.64.73,4.3.24c.3-.16.6-.2.9-.12.3.09.6.04.91-.12Z"/>
  </g>
</svg>